<?xml version="1.0" standalone="no"?><!DOCTYPE svg PUBLIC "-//W3C//DTD SVG 1.1//EN" "http://www.w3.org/Graphics/SVG/1.1/DTD/svg11.dtd"><svg t="1685538063069" class="icon" viewBox="0 0 1024 1024" version="1.1" xmlns="http://www.w3.org/2000/svg" p-id="4091" xmlns:xlink="http://www.w3.org/1999/xlink" width="16" height="16"><path d="M512 512m-512 0a512 512 0 1 0 1024 0 512 512 0 1 0-1024 0Z" fill="#1750E5" opacity=".1" p-id="4092"></path><path d="M311.296 361.472m-259.072 0a259.072 259.072 0 1 0 518.144 0 259.072 259.072 0 1 0-518.144 0Z" fill="#A3D4FF" p-id="4093"></path><path d="M311.296 632.832c-149.504 0-271.36-121.856-271.36-271.36S160.768 90.112 311.296 90.112c149.504 0 271.36 121.856 271.36 271.36S460.8 632.832 311.296 632.832z m0-517.12c-135.168 0-245.76 110.592-245.76 245.76s110.592 245.76 245.76 245.76 245.76-110.592 245.76-245.76-110.592-245.76-245.76-245.76z" fill="#1750E5" p-id="4094"></path><path d="M917.504 808.96H337.92c-6.144 0-11.264-4.096-12.288-10.24l-133.12-634.88-140.288-23.552c-7.168-1.024-12.288-8.192-10.24-15.36 1.024-7.168 8.192-12.288 15.36-10.24l148.48 24.576c5.12 1.024 9.216 5.12 10.24 10.24L348.16 783.36h569.344c7.168 0 13.312 6.144 13.312 13.312s-6.144 12.288-13.312 12.288z" fill="#1750E5" p-id="4095"></path><path d="M830.464 685.056h-419.84c-7.168 0-13.312-6.144-13.312-13.312s6.144-13.312 13.312-13.312h409.6L888.832 286.72h-532.48c-7.168 0-13.312-6.144-13.312-13.312s6.144-13.312 13.312-13.312h547.84c4.096 0 7.168 2.048 10.24 5.12 2.048 3.072 3.072 7.168 3.072 10.24l-74.752 398.336c-1.024 7.168-6.144 11.264-12.288 11.264z" fill="#1750E5" p-id="4096"></path><path d="M586.752 591.872c-50.176 0-86.016-14.336-107.52-43.008-37.888-51.2-12.288-128-11.264-132.096 12.288-30.72 31.744-52.224 58.368-62.464 60.416-23.552 137.216 14.336 140.288 16.384 4.096 2.048 6.144 5.12 7.168 9.216 1.024 4.096 0 8.192-3.072 11.264L583.68 487.424c-5.12 5.12-13.312 6.144-18.432 1.024s-6.144-13.312-1.024-18.432l74.752-82.944c-23.552-9.216-68.608-22.528-103.424-8.192-20.48 8.192-34.816 23.552-44.032 47.104 0 0-22.528 66.56 8.192 107.52 17.408 23.552 50.176 33.792 96.256 32.768 3.072 0 90.112-10.24 86.016-107.52 0-7.168 5.12-13.312 12.288-13.312s13.312 5.12 13.312 12.288c5.12 121.856-108.544 135.168-110.592 135.168-2.048-1.024-6.144-1.024-10.24-1.024z" fill="#1750E5" p-id="4097"></path><path d="M497.664 932.864m-51.2 0a51.2 51.2 0 1 0 102.4 0 51.2 51.2 0 1 0-102.4 0Z" fill="#F2F2F2" p-id="4098"></path><path d="M497.664 996.352c-34.816 0-63.488-28.672-63.488-63.488s28.672-63.488 63.488-63.488 63.488 28.672 63.488 63.488-27.648 63.488-63.488 63.488z m0-101.376c-20.48 0-37.888 17.408-37.888 37.888s17.408 37.888 37.888 37.888 37.888-17.408 37.888-37.888-16.384-37.888-37.888-37.888z" fill="#1750E5" p-id="4099"></path><path d="M757.76 932.864m-51.2 0a51.2 51.2 0 1 0 102.4 0 51.2 51.2 0 1 0-102.4 0Z" fill="#F2F2F2" p-id="4100"></path><path d="M757.76 996.352c-34.816 0-63.488-28.672-63.488-63.488s28.672-63.488 63.488-63.488 63.488 28.672 63.488 63.488-28.672 63.488-63.488 63.488z m0-101.376c-20.48 0-37.888 17.408-37.888 37.888s17.408 37.888 37.888 37.888 37.888-17.408 37.888-37.888-17.408-37.888-37.888-37.888z" fill="#1750E5" p-id="4101"></path></svg>